Coordinates
version=1
nRows=43
nColumns=12
inDegrees=yes

Units are S.I. units (second, meters, Newtons, ...)
Angles are in degrees

endheader
time	SC_y	SC_z	SC_x	AC_y	AC_z	AC_x	GH_y	GH_z	GH_yy	EL_x	PS_y
       0.0               -48.1         -1.417          8.778          44.67            3.3         -18.51         -167.0          19.37         -120.0          52.95          17.08
    0.0142               -48.1         -1.411          8.777          44.67          3.297         -18.51         -167.0          19.37         -120.0          52.95          17.08
   0.02839              -48.09         -1.405          8.777          44.67          3.294          -18.5         -167.0          19.37         -120.0          52.96          17.08
   0.04259              -48.09         -1.398          8.776          44.67          3.292          -18.5         -167.0          19.36         -119.9          52.97          17.08
   0.05679              -48.08         -1.391          8.775          44.67          3.289          -18.5         -166.9          19.36         -119.9          52.98          17.08
   0.07098              -48.08         -1.384          8.775          44.68          3.286          -18.5         -166.9          19.36         -119.9          52.98          17.08
   0.08518              -48.08         -1.375          8.774          44.68          3.282          -18.5         -166.9          19.35         -119.9          52.99          17.08
   0.09938              -48.07         -1.367          8.773          44.68          3.279          -18.5         -166.9          19.35         -119.9           53.0          17.09
    0.1136              -48.07         -1.357          8.772          44.68          3.275          -18.5         -166.9          19.34         -119.9          53.01          17.09
    0.1278              -48.06         -1.347          8.771          44.69          3.271          -18.5         -166.8          19.34         -119.9          53.02          17.09
     0.142              -48.05         -1.337           8.77          44.69          3.266         -18.49         -166.8          19.33         -119.9          53.03          17.09
    0.1562              -48.05         -1.325          8.769          44.69          3.261         -18.49         -166.8          19.32         -119.9          53.05          17.09
    0.1704              -48.04         -1.313          8.768           44.7          3.256         -18.49         -166.7          19.32         -119.9          53.06          17.09
    0.1846              -48.03         -1.299          8.767           44.7          3.251         -18.49         -166.7          19.31         -119.9          53.07          17.09
    0.1988              -48.03         -1.285          8.765           44.7          3.245         -18.48         -166.7           19.3         -119.9          53.09          17.09
     0.213              -48.02         -1.269          8.764          44.71          3.238         -18.48         -166.6          19.29         -119.9          53.11           17.1
    0.2272              -48.01         -1.252          8.762          44.71          3.231         -18.48         -166.6          19.28         -119.9          53.13           17.1
    0.2413               -48.0         -1.233          8.761          44.72          3.223         -18.48         -166.5          19.27         -119.8          53.15           17.1
    0.2555              -47.99         -1.213          8.759          44.72          3.215         -18.47         -166.5          19.26         -119.8          53.17           17.1
    0.2697              -47.98         -1.191          8.756          44.73          3.206         -18.47         -166.4          19.25         -119.8          53.19           17.1
    0.2839              -47.96         -1.166          8.754          44.73          3.195         -18.47         -166.4          19.23         -119.8          53.22          17.11
    0.2981              -47.95         -1.139          8.752          44.74          3.184         -18.46         -166.3          19.22         -119.8          53.25          17.11
    0.3123              -47.93         -1.109          8.749          44.75          3.172         -18.46         -166.2           19.2         -119.8          53.28          17.11
    0.3265              -47.91         -1.077          8.746          44.76          3.158         -18.45         -166.2          19.18         -119.8          53.31          17.12
    0.3407              -47.89          -1.04          8.742          44.77          3.143         -18.44         -166.1          19.16         -119.7          53.35          17.12
    0.3549              -47.87        -0.9989          8.738          44.78          3.126         -18.44         -166.0          19.14         -119.7           53.4          17.13
    0.3691              -47.85        -0.9531          8.734          44.79          3.107         -18.43         -165.9          19.11         -119.7          53.45          17.13
    0.3833              -47.82        -0.9016          8.729           44.8          3.086         -18.42         -165.7          19.08         -119.6           53.5          17.14
    0.3975              -47.79        -0.8433          8.724          44.82          3.062         -18.41         -165.6          19.05         -119.6          53.56          17.14
    0.4117              -47.75        -0.7772          8.717          44.84          3.034          -18.4         -165.4          19.01         -119.6          53.63          17.15
    0.4259              -47.71        -0.7017           8.71          44.86          3.003         -18.39         -165.2          18.97         -119.5          53.72          17.16
    0.4401              -47.67         -0.615          8.702          44.88          2.967         -18.37         -165.0          18.92         -119.5          53.81          17.17
    0.4543              -47.61         -0.515          8.693          44.91          2.926         -18.36         -164.8          18.86         -119.4          53.92          17.18
    0.4685              -47.55        -0.3988          8.682          44.94          2.877         -18.34         -164.5           18.8         -119.3          54.04          17.19
    0.4827              -47.48        -0.2628          8.669          44.97          2.821         -18.32         -164.2          18.72         -119.3          54.19          17.21
    0.4969              -47.39        -0.1025          8.654          45.02          2.755         -18.29         -163.8          18.63         -119.2          54.36          17.23
    0.5111              -47.29          0.088          8.636          45.07          2.676         -18.26         -163.3          18.52         -119.0          54.56          17.25
    0.5253              -47.16         0.3164          8.614          45.13          2.581         -18.22         -162.7          18.39         -118.9          54.81          17.27
    0.5395              -47.01         0.5926          8.588           45.2          2.466         -18.17         -162.1          18.24         -118.7          55.11          17.31
    0.5537              -46.83         0.9301          8.556          45.29          2.327         -18.12         -161.2          18.05         -118.5          55.47          17.34
    0.5679              -46.61          1.347          8.517           45.4          2.154         -18.05         -160.2          17.81         -118.3          55.92          17.39
    0.5821              -46.33          1.866          8.468          45.54          1.939         -17.96         -158.9          17.52         -118.0          56.47          17.45
    0.5963              -45.97           2.52          8.406          45.71          1.667         -17.85         -157.3          17.15         -117.6          57.18          17.52
